#N canvas 840 23 840 1005 10;
#X obj 115 164 notein;
#X obj 116 229 pack 0 0 0;
#X obj 107 391 *~;
#X obj 104 428 dac~;
#X obj 230 383 hsl 128 15 0 1 0 1 empty empty volume -2 -8 0 10 -262144
-1 -1 10700 1;
#X obj 512 182 vsl 15 128 0.1 1.1 1 1 empty empty S 0 -9 0 10 -262144
-1 -1 3200 1;
#X obj 414 181 vsl 15 128 10 10010 1 1 empty empty A 0 -9 0 10 -262144
-1 -1 3300 1;
#X obj 561 182 vsl 15 128 10 10010 1 1 empty empty R 0 -9 0 10 -262144
-1 -1 7800 1;
#X obj 461 182 vsl 15 128 10 10010 1 1 empty empty D 0 -9 0 10 -262144
-1 -1 8400 1;
#X obj 415 319 - 10;
#X obj 461 318 - 10;
#X obj 512 318 - 0.1;
#X obj 561 318 - 10;
#X obj 415 341 s a;
#X obj 461 340 s d;
#X obj 512 340 s s;
#X obj 561 340 s r;
#X obj 92 320 note;
#X obj 116 207 poly 4 1;
#X obj 118 280 route 1 2 3 4;
#X obj 418 420 hsl 128 15 20 20000 1 1 start empty start -2 -8 0 10
-262144 -1 -1 11000 1;
#X obj 418 460 hsl 128 15 20 20000 1 1 end empty end -2 -8 0 10 -262144
-1 -1 600 1;
#X obj 418 500 hsl 128 15 10 10000 1 1 time empty time -2 -8 0 10 -262144
-1 -1 7000 1;
#X obj 418 540 hsl 128 15 1 256 1 1 empty empty q -2 -8 0 10 -262144
-1 -1 1500 1;
#X obj 417 585 -1;
#X obj 417 618 s q;
#X obj 134 321 note;
#X obj 183 321 note;
#X obj 225 322 note;
#X obj 273 60 r att;
#X obj 480 57 r dec;
#X obj 636 139 r sus;
#X obj 631 219 r rel;
#N canvas 0 23 1680 1005 midi-in 1;
#X obj 668 661 makenote;
#X msg 748 631 350;
#X msg 705 632 127;
#X floatatom 656 632 5 0 0 0 - - -, f 5;
#X obj 525 216 inlet;
#X obj 640 708 outlet;
#X obj 683 571 loadbang;
#X obj 710 707 outlet;
#X obj 414 252 metro 500;
#X floatatom 419 324 5 0 0 0 - - -, f 5;
#X floatatom 481 216 5 0 0 0 - - -, f 5;
#X obj 953 271 loadbang;
#X obj 953 293 bng 15 250 50 0 empty empty empty 17 7 0 10 -262144
-1 -1;
#X msg 953 313 \; major 0 0 2 4 5 7 9 11 12;
#X obj 953 348 table major;
#X obj 423 210 tgl 15 0 empty empty empty 17 7 0 10 -262144 -1 -1 1
1;
#X obj 651 536 + 48;
#N canvas 0 23 1512 914 scales 0;
#X obj 11 17 loadbang;
#X obj 10 156 loadbang;
#X obj 15 269 loadbang;
#X obj 17 383 loadbang;
#X obj 18 503 loadbang;
#X obj 427 3 loadbang;
#X obj 429 98 loadbang;
#X obj 430 197 loadbang;
#X obj 431 294 loadbang;
#X obj 430 421 loadbang;
#X obj 20 598 loadbang;
#X obj 433 534 loadbang;
#X obj 822 12 loadbang;
#X obj 823 149 loadbang;
#X obj 818 293 loadbang;
#X obj 11 131 table \$0-ionian;
#X obj 8 248 table \$0-aeolian;
#X obj 16 361 table \$0-dorian;
#X obj 17 479 table \$0-phrygian;
#X obj 18 692 table \$0-lyd-minor;
#X obj 459 24 table \$0-chromatic;
#X obj 462 119 table \$0-ancient;
#X obj 464 218 table \$0-tetra;
#X obj 466 315 table \$0-indian;
#X obj 468 441 table \$0-siga;
#X obj 433 653 table \$0-harm-major;
#X obj 864 35 table \$0-pelog;
#X obj 823 267 table \$0-slendro;
#X obj 817 395 table \$0-whole;
#X msg 11 81 \; \$1-ionian 0 0 2 4 5 7 9 11 12 14 16 17 19 21 23 24
26 28 29 31 33 35 36 38 40 41 43 45 47 48;
#X msg 10 201 \; \$1-aeolian 0 0 2 3 5 7 8 10 12 14 15 17 19 20 22
24 26 27 29 31 32 34 36 38 39 41 43 44 46 48;
#X msg 16 312 \; \$1-dorian 0 0 2 3 5 7 9 10 12 14 15 17 19 21 22 24
26 27 29 31 33 34 36 38 39 41 43 45 46 48;
#X msg 17 432 \; \$1-phrygian 0 0 1 3 5 7 8 10 12 13 15 17 19 20 22
24 25 27 29 31 32 34 36 37 39 41 43 44 46 48;
#X msg 18 549 \; \$1-lydian 0 0 2 4 6 7 9 11 12 14 16 18 19 21 23 24
26 28 30 31 33 35 36 38 40 42 43 45 47 48;
#X msg 19 643 \; \$1-lyd-minor 0 0 2 3 6 7 9 11 12 14 15 18 19 21 23
24 26 27 30 31 33 35 36 38 39 42 43 45 47 48;
#X msg 427 50 \; \$1-chromatic 0 0 1 2 3 4 5 6 7 8 9 10 11 12 13 14
15 16 17 18 19 20 21 22 23 24 25 26 27 28;
#X msg 428 151 \; \$1-ancient 0 0 0.5 1 5 7 7.5 8 12 12.5 13 17 19
19.5 20 24 24.5 25 29 31 31.5 32 36 36.5 37 41 43 43.5 44 48;
#X msg 430 248 \; \$1-tetra 0 0 1 1.75 2 3 3.75 4 5 12 13 13.75 14
15 15.75 16 17 24 25 25.75 26 27 27.75 28 29 36 37 37.75 38 39;
#X msg 431 350 \; \$1-indian 0 0 0.9 1.14 1.8 2.04 2.94 3.18 3.84 4.08
4.9 5.22 5.88 6.12 7.02 7.92 8.16 8.82 9.06 9.96 10.2 10.86 11.1 12
12.9 13.14 13.8 14.04 14.94 15.18;
#X msg 430 468 \; \$1-siga 0 0 1.5 3.5 5.5 7 8.5 10.5 12 13.5 15.5
17.5 19 20.5 22.5 24 25.5 27.5 29.5 31 32.5 34.5 36 37.5 39.5 41.5
43 44.5 46.5 48.5;
#X msg 433 601 \; \$1-harm-major 0 0 2 4 5 7 8 11 12 14 16 17 19 20
23 24 26 28 29 31 32 35 36 38 40 41 43 44 47 48;
#X msg 822 73 \; \$1-pelog 0 0 1.5 2.5 3.5 7 8 10.5 12 13.5 14.5 15.5
19 20 22.5 24 25.5 26.5 27.5 31 32 34.5 36 37.5 38.5 39.5 42.5 43.5
45 46.5;
#X msg 823 218 \; \$1-slendro 0 0 2.5 5 7 9.5 12 14.5 17 19 21.5 24
26.5 29 31 33.5 36 38.5 41 43 45.5 47 49.5 52 54 56.5 59 61.5 64 66.5
;
#X msg 818 346 \; \$1-whole 0 0 2 4 6 8 10 12 14 16 18 20 22 24 26
28 30 32 34 36 38 40 42 44 46 48 50 52 54 56;
#X obj 11 39 f \$0;
#X obj 10 178 f \$0;
#X obj 15 291 f \$0;
#X obj 17 405 f \$0;
#X obj 18 525 f \$0;
#X obj 20 620 f \$0;
#X obj 427 25 f \$0;
#X obj 429 120 f \$0;
#X obj 430 219 f \$0;
#X obj 431 316 f \$0;
#X obj 430 443 f \$0;
#X obj 433 556 f \$0;
#X obj 822 34 f \$0;
#X obj 823 171 f \$0;
#X obj 818 315 f \$0;
#X obj 49 524 table \$0-lydian;
#X connect 0 0 44 0;
#X connect 1 0 45 0;
#X connect 2 0 46 0;
#X connect 3 0 47 0;
#X connect 4 0 48 0;
#X connect 5 0 50 0;
#X connect 6 0 51 0;
#X connect 7 0 52 0;
#X connect 8 0 53 0;
#X connect 9 0 54 0;
#X connect 10 0 49 0;
#X connect 11 0 55 0;
#X connect 12 0 56 0;
#X connect 13 0 57 0;
#X connect 14 0 58 0;
#X connect 44 0 29 0;
#X connect 45 0 30 0;
#X connect 46 0 31 0;
#X connect 47 0 32 0;
#X connect 48 0 33 0;
#X connect 49 0 34 0;
#X connect 50 0 35 0;
#X connect 51 0 36 0;
#X connect 52 0 37 0;
#X connect 53 0 38 0;
#X connect 54 0 39 0;
#X connect 55 0 40 0;
#X connect 56 0 41 0;
#X connect 57 0 42 0;
#X connect 58 0 43 0;
#X restore 722 308 pd scales;
#N canvas 0 23 1366 886 choose-scale 0;
#X obj 438 475 outlet;
#X obj 81 37 / 127;
#X obj 81 103 i;
#X obj 81 58 * 13;
#X obj 81 15 inlet;
#X msg 80 566 set \$1-ionian;
#X obj 24 150 loadbang;
#X msg 90 464 set \$1-dorian;
#X msg 110 340 set \$1-phrygian;
#X msg 125 238 set \$1-lydian;
#X msg 220 239 set \$1-aeolian;
#X msg 317 239 set \$1-whole;
#X msg 404 236 set \$1-chromatic;
#X msg 512 234 set \$1-harm-major;
#X msg 559 311 set \$1-lyd-minor;
#X msg 588 363 set \$1-ancient;
#X msg 827 283 set \$1-pelog;
#X msg 642 445 set \$1-tetra;
#X msg 817 455 set \$1-indian;
#X msg 989 300 set \$1-slendro;
#X obj 24 171 f \$0;
#X obj 81 125 sel 0 1 2 3 4 5 6 7 8 9 10 11 12 13;
#X obj 80 536 f;
#X obj 90 435 f;
#X obj 110 318 f;
#X obj 125 210 f;
#X obj 24 193 t f f f f;
#X obj 216 45 loadbang;
#X obj 216 66 f \$0;
#X obj 216 88 t f f f f;
#X obj 220 215 f;
#X obj 317 213 f;
#X obj 404 214 f;
#X obj 512 210 f;
#X obj 559 285 f;
#X obj 589 339 f;
#X obj 661 404 f;
#X obj 807 412 f;
#X obj 552 51 loadbang;
#X obj 552 72 f \$0;
#X obj 830 246 f;
#X obj 1000 257 f;
#X obj 552 94 t f f f f f f;
#X connect 1 0 3 0;
#X connect 2 0 21 0;
#X connect 3 0 2 0;
#X connect 4 0 1 0;
#X connect 5 0 0 0;
#X connect 6 0 20 0;
#X connect 7 0 0 0;
#X connect 8 0 0 0;
#X connect 9 0 0 0;
#X connect 10 0 0 0;
#X connect 11 0 0 0;
#X connect 12 0 0 0;
#X connect 13 0 0 0;
#X connect 14 0 0 0;
#X connect 15 0 0 0;
#X connect 16 0 0 0;
#X connect 17 0 0 0;
#X connect 18 0 0 0;
#X connect 19 0 0 0;
#X connect 20 0 26 0;
#X connect 21 0 22 0;
#X connect 21 1 23 0;
#X connect 21 2 24 0;
#X connect 21 3 25 0;
#X connect 21 4 30 0;
#X connect 21 5 31 0;
#X connect 21 6 32 0;
#X connect 21 7 33 0;
#X connect 21 8 34 0;
#X connect 21 9 35 0;
#X connect 21 10 36 0;
#X connect 21 11 37 0;
#X connect 21 12 40 0;
#X connect 21 13 41 0;
#X connect 22 0 5 0;
#X connect 23 0 7 0;
#X connect 24 0 8 0;
#X connect 25 0 9 0;
#X connect 26 0 22 1;
#X connect 26 1 23 1;
#X connect 26 2 24 1;
#X connect 26 3 25 1;
#X connect 27 0 28 0;
#X connect 28 0 29 0;
#X connect 29 0 30 1;
#X connect 29 1 31 1;
#X connect 29 2 32 1;
#X connect 29 3 33 1;
#X connect 30 0 10 0;
#X connect 31 0 11 0;
#X connect 32 0 12 0;
#X connect 33 0 13 0;
#X connect 34 0 14 0;
#X connect 35 0 15 0;
#X connect 36 0 17 0;
#X connect 37 0 18 0;
#X connect 38 0 39 0;
#X connect 39 0 42 0;
#X connect 40 0 16 0;
#X connect 41 0 19 0;
#X connect 42 0 34 1;
#X connect 42 1 35 1;
#X connect 42 2 36 1;
#X connect 42 3 37 1;
#X connect 42 4 40 1;
#X connect 42 5 41 1;
#X restore 731 414 pd choose-scale;
#X floatatom 729 378 5 0 0 0 - - -, f 5;
#X obj 726 342 r scale-choice;
#X floatatom 669 131 5 0 0 0 - - -, f 5;
#X floatatom 723 226 5 0 0 0 - - -, f 5;
#X obj 928 506 map;
#X obj 751 171 map 1 127 1000 25, f 24;
#X obj 415 290 random 30;
#X obj 292 173 sel 0 1;
#X floatatom 292 145 5 0 0 0 - - -, f 5;
#X obj 288 97 r metro-on;
#X obj 210 246 map 0 127 0 30;
#X floatatom 294 287 5 0 0 0 - - -, f 5;
#X floatatom 206 216 5 0 0 0 - - -, f 5;
#X obj 205 181 r freq;
#X obj 635 489 tabread major;
#X obj 748 124 r metro-val;
#X connect 0 0 5 0;
#X connect 0 1 7 0;
#X connect 1 0 0 2;
#X connect 2 0 0 1;
#X connect 3 0 0 0;
#X connect 6 0 3 0;
#X connect 6 0 2 0;
#X connect 6 0 1 0;
#X connect 8 0 25 0;
#X connect 9 0 33 0;
#X connect 10 0 8 1;
#X connect 11 0 12 0;
#X connect 12 0 13 0;
#X connect 15 0 8 0;
#X connect 16 0 3 0;
#X connect 18 0 33 0;
#X connect 19 0 18 0;
#X connect 20 0 19 0;
#X connect 21 0 24 0;
#X connect 22 0 8 1;
#X connect 24 0 22 0;
#X connect 25 0 9 0;
#X connect 26 1 15 0;
#X connect 27 0 26 0;
#X connect 28 0 27 0;
#X connect 29 0 30 0;
#X connect 30 0 33 0;
#X connect 31 0 29 0;
#X connect 32 0 31 0;
#X connect 33 0 16 0;
#X connect 34 0 24 0;
#X restore 170 104 pd midi-in;
#X obj 276 107 map 0 127 10 10010, f 24;
#X obj 483 104 map 0 127 0 10010, f 24;
#X obj 639 186 map 0 127 0 1, f 24;
#X obj 634 266 map 0 127 10 10010, f 24;
#X obj 593 394 r start;
#X obj 595 448 r end;
#X obj 596 495 r time;
#X obj 599 538 r q;
#X connect 0 0 18 0;
#X connect 0 1 18 1;
#X connect 1 0 19 0;
#X connect 2 0 3 0;
#X connect 2 0 3 1;
#X connect 4 0 2 1;
#X connect 5 0 11 0;
#X connect 6 0 9 0;
#X connect 7 0 12 0;
#X connect 8 0 10 0;
#X connect 9 0 13 0;
#X connect 10 0 14 0;
#X connect 11 0 15 0;
#X connect 12 0 16 0;
#X connect 17 0 2 0;
#X connect 18 0 1 0;
#X connect 18 1 1 1;
#X connect 18 2 1 2;
#X connect 19 0 17 0;
#X connect 19 1 26 0;
#X connect 19 2 27 0;
#X connect 19 3 28 0;
#X connect 23 0 24 0;
#X connect 24 0 25 0;
#X connect 26 0 2 0;
#X connect 27 0 2 0;
#X connect 28 0 2 0;
#X connect 29 0 34 0;
#X connect 30 0 35 0;
#X connect 31 0 36 0;
#X connect 32 0 37 0;
#X connect 33 0 18 0;
#X connect 33 1 18 1;
#X connect 34 0 6 0;
#X connect 35 0 8 0;
#X connect 36 0 5 0;
#X connect 37 0 7 0;
#X connect 38 0 20 0;
#X connect 39 0 21 0;
#X connect 40 0 22 0;
#X connect 41 0 23 0;
