#N canvas 535 95 1123 525 10;
#X obj 65 104 inlet;
#X obj 216 104 inlet;
#X obj 140 104 inlet;
#X obj 66 326 outlet;
#X obj 140 130 float \$1;
#X obj 216 130 float \$2;
#X text 296 265 by Adrian Rennertz;
#X obj 361 77 loadbang;
#X msg 361 230 0;
#X text 60 8 inlets are (from left to right) input_value - input_range_low
- input_range_high - output_range_low - output_range_high. low and
high can be switched to invert the value. values that exceed the output
range will output the treshold.;
#X obj 65 167 expr ( log( $f1 ) - log( $f2 ) ) / ( log( $f3 ) - log(
$f2 ) );
#X connect 0 0 10 0;
#X connect 1 0 5 0;
#X connect 2 0 4 0;
#X connect 4 0 10 1;
#X connect 5 0 10 2;
#X connect 7 0 5 0;
#X connect 7 0 4 0;
#X connect 7 0 8 0;
