#N canvas 512 23 1133 1005 10;
#X obj 115 164 notein;
#X obj 116 229 pack 0 0 0;
#X obj 107 391 *~;
#X obj 104 428 dac~;
#X obj 230 383 hsl 128 15 0 1 0 1 empty empty volume -2 -8 0 10 -262144
-1 -1 10700 1;
#X obj 512 182 vsl 15 128 0.1 1.1 1 1 empty empty S 0 -9 0 10 -262144
-1 -1 5130 1;
#X obj 414 181 vsl 15 128 10 10010 1 1 empty empty A 0 -9 0 10 -262144
-1 -1 5900 1;
#X obj 561 182 vsl 15 128 10 10010 1 1 empty empty R 0 -9 0 10 -262144
-1 -1 3000 1;
#X obj 461 182 vsl 15 128 10 10010 1 1 empty empty D 0 -9 0 10 -262144
-1 -1 3890 1;
#X obj 415 319 - 10;
#X obj 461 318 - 10;
#X obj 512 318 - 0.1;
#X obj 561 318 - 10;
#X obj 415 341 s a;
#X obj 461 340 s d;
#X obj 512 340 s s;
#X obj 561 340 s r;
#X obj 92 320 note;
#X obj 116 207 poly 4 1;
#X obj 118 280 route 1 2 3 4;
#X obj 418 420 hsl 128 15 20 20000 1 1 start empty start -2 -8 0 10
-262144 -1 -1 11442 1;
#X obj 418 460 hsl 128 15 20 20000 1 1 end empty end -2 -8 0 10 -262144
-1 -1 11442 1;
#X obj 418 500 hsl 128 15 10 10000 1 1 time empty time -2 -8 0 10 -262144
-1 -1 8049 1;
#X obj 418 540 hsl 128 15 1 256 1 1 empty empty q -2 -8 0 10 -262144
-1 -1 0 1;
#X obj 417 585 -1;
#X obj 417 618 s q;
#X obj 134 321 note;
#X obj 183 321 note;
#X obj 225 322 note;
#X obj 273 60 r att;
#X obj 480 57 r dec;
#X obj 636 139 r sus;
#X obj 631 219 r rel;
#N canvas 685 87 840 1005 midi-in 1;
#X obj 668 661 makenote;
#X msg 748 631 350;
#X msg 705 632 127;
#X floatatom 656 632 5 0 0 0 - - -, f 5;
#X obj 525 216 inlet;
#X obj 640 708 outlet;
#X obj 683 571 loadbang;
#X obj 710 707 outlet;
#X obj 414 252 metro 500;
#X floatatom 419 324 5 0 0 0 - - -, f 5;
#X floatatom 481 216 5 0 0 0 - - -, f 5;
#X obj 953 271 loadbang;
#X obj 953 293 bng 15 250 50 0 empty empty empty 17 7 0 10 -262144
-1 -1;
#X msg 953 313 \; major 0 0 2 4 5 7 9 11 12;
#X obj 953 348 table major;
#X obj 423 210 tgl 15 0 empty empty empty 17 7 0 10 -262144 -1 -1 1
1;
#X obj 651 536 + 48;
#N canvas 0 23 1366 886 choose-scale 0;
#X obj 438 475 outlet;
#X obj 81 37 / 127;
#X obj 81 103 i;
#X obj 81 58 * 13;
#X obj 81 15 inlet;
#X obj 24 150 loadbang;
#X obj 24 171 f \$0;
#X obj 81 125 sel 0 1 2 3 4 5 6 7 8 9 10 11 12 13;
#X obj 80 536 f;
#X obj 90 435 f;
#X obj 110 318 f;
#X obj 125 210 f;
#X obj 24 193 t f f f f;
#X obj 216 45 loadbang;
#X obj 216 66 f \$0;
#X obj 216 88 t f f f f;
#X obj 220 215 f;
#X obj 317 213 f;
#X obj 404 214 f;
#X obj 512 210 f;
#X obj 559 285 f;
#X obj 589 339 f;
#X obj 661 404 f;
#X obj 807 412 f;
#X obj 552 51 loadbang;
#X obj 552 72 f \$0;
#X obj 830 246 f;
#X obj 1000 257 f;
#X obj 552 94 t f f f f f f;
#X msg 80 566 set ionian;
#X msg 220 239 set aeolian;
#X msg 90 464 set dorian;
#X msg 110 340 set phrygian;
#X msg 125 238 set lydian;
#X msg 317 239 set whole;
#X msg 404 236 set chromatic;
#X msg 512 234 set harm-major;
#X msg 559 310 set lyd-minor;
#X msg 588 363 set ancient;
#X msg 642 445 set tetra;
#X msg 827 283 set pelog;
#X msg 989 300 set slendro;
#X msg 817 455 set indian;
#X connect 1 0 3 0;
#X connect 2 0 7 0;
#X connect 3 0 2 0;
#X connect 4 0 1 0;
#X connect 5 0 6 0;
#X connect 6 0 12 0;
#X connect 7 0 8 0;
#X connect 7 1 9 0;
#X connect 7 2 10 0;
#X connect 7 3 11 0;
#X connect 7 4 16 0;
#X connect 7 5 17 0;
#X connect 7 6 18 0;
#X connect 7 7 19 0;
#X connect 7 8 20 0;
#X connect 7 9 21 0;
#X connect 7 10 22 0;
#X connect 7 11 23 0;
#X connect 7 12 26 0;
#X connect 7 13 27 0;
#X connect 8 0 29 0;
#X connect 9 0 31 0;
#X connect 10 0 32 0;
#X connect 11 0 33 0;
#X connect 12 0 8 1;
#X connect 12 1 9 1;
#X connect 12 2 10 1;
#X connect 12 3 11 1;
#X connect 13 0 14 0;
#X connect 14 0 15 0;
#X connect 15 0 16 1;
#X connect 15 1 17 1;
#X connect 15 2 18 1;
#X connect 15 3 19 1;
#X connect 16 0 30 0;
#X connect 17 0 34 0;
#X connect 18 0 35 0;
#X connect 19 0 36 0;
#X connect 20 0 37 0;
#X connect 21 0 38 0;
#X connect 22 0 39 0;
#X connect 23 0 42 0;
#X connect 24 0 25 0;
#X connect 25 0 28 0;
#X connect 26 0 40 0;
#X connect 27 0 41 0;
#X connect 28 0 20 1;
#X connect 28 1 21 1;
#X connect 28 2 22 1;
#X connect 28 3 23 1;
#X connect 28 4 26 1;
#X connect 28 5 27 1;
#X connect 29 0 0 0;
#X connect 30 0 0 0;
#X connect 31 0 0 0;
#X connect 32 0 0 0;
#X connect 33 0 0 0;
#X connect 34 0 0 0;
#X connect 35 0 0 0;
#X connect 36 0 0 0;
#X connect 37 0 0 0;
#X connect 38 0 0 0;
#X connect 39 0 0 0;
#X connect 40 0 0 0;
#X connect 41 0 0 0;
#X connect 42 0 0 0;
#X restore 731 414 pd choose-scale;
#X floatatom 729 378 5 0 0 0 - - -, f 5;
#X obj 726 342 r scale-choice;
#X floatatom 669 131 5 0 0 0 - - -, f 5;
#X floatatom 723 226 5 0 0 0 - - -, f 5;
#X obj 928 506 map;
#X obj 751 171 map 1 127 1000 25, f 24;
#X obj 415 290 random 30;
#X obj 292 173 sel 0 1;
#X floatatom 292 145 5 0 0 0 - - -, f 5;
#X obj 288 97 r metro-on;
#X obj 210 246 map 0 127 0 30;
#X floatatom 294 287 5 0 0 0 - - -, f 5;
#X floatatom 206 216 5 0 0 0 - - -, f 5;
#X obj 205 181 r freq;
#X obj 635 489 tabread major;
#X obj 748 124 r metro-val;
#N canvas 0 23 1680 1005 choose-scales 0;
#X obj 11 17 loadbang;
#X obj 10 156 loadbang;
#X obj 15 269 loadbang;
#X obj 17 383 loadbang;
#X obj 18 503 loadbang;
#X obj 465 18 loadbang;
#X obj 467 113 loadbang;
#X obj 468 212 loadbang;
#X obj 469 309 loadbang;
#X obj 468 436 loadbang;
#X obj 20 598 loadbang;
#X obj 471 549 loadbang;
#X obj 1012 19 loadbang;
#X obj 1013 156 loadbang;
#X obj 1008 300 loadbang;
#X obj 11 39 f \$0;
#X obj 10 178 f \$0;
#X obj 15 291 f \$0;
#X obj 17 405 f \$0;
#X obj 18 525 f \$0;
#X obj 20 620 f \$0;
#X obj 465 40 f \$0;
#X obj 467 135 f \$0;
#X obj 468 234 f \$0;
#X obj 469 331 f \$0;
#X obj 468 458 f \$0;
#X obj 471 571 f \$0;
#X obj 973 50 f \$0;
#X obj 974 187 f \$0;
#X obj 960 322 f \$0;
#X msg 11 82 \; ionian 0 0 2 4 5 7 9 11 12 14 16 17 19 21 23 24 26
28 29 31 33 35 36 38 40 41 43 45 47 48;
#X obj 11 130 table ionian;
#X msg 10 201 \; aeolian 0 0 2 3 5 7 8 10 12 14 15 17 19 20 22 24 26
27 29 31 32 34 36 38 39 41 43 44 46 48;
#X obj 8 248 table aeolian;
#X msg 16 312 \; dorian 0 0 2 3 5 7 9 10 12 14 15 17 19 21 22 24 26
27 29 31 33 34 36 38 39 41 43 45 46 48;
#X obj 17 361 table dorian;
#X msg 17 432 \; phrygian 0 0 1 3 5 7 8 10 12 13 15 17 19 20 22 24
25 27 29 31 32 34 36 37 39 41 43 44 46 48;
#X obj 17 479 table phrygian;
#X obj 49 524 table lydian;
#X msg 18 549 \; lydian 0 0 2 4 6 7 9 11 12 14 16 18 19 21 23 24 26
28 30 31 33 35 36 38 40 42 43 45 47 48;
#X msg 19 643 \; lyd-minor 0 0 2 3 6 7 9 11 12 14 15 18 19 21 23 24
26 27 30 31 33 35 36 38 39 42 43 45 47 48;
#X obj 18 692 table lyd-minor;
#X obj 560 29 table chromatic;
#X msg 528 55 \; chromatic 0 0 1 2 3 4 5 6 7 8 9 10 11 12 13 14 15
16 17 18 19 20 21 22 23 24 25 26 27 28;
#X obj 563 124 table ancient;
#X msg 529 156 \; ancient 0 0 0.5 1 5 7 7.5 8 12 12.5 13 17 19 19.5
20 24 24.5 25 29 31 31.5 32 36 36.5 37 41 43 43.5 44 48;
#X obj 565 223 table tetra;
#X msg 531 253 \; tetra 0 0 1 1.75 2 3 3.75 4 5 12 13 13.75 14 15 15.75
16 17 24 25 25.75 26 27 27.75 28 29 36 37 37.75 38 39;
#X obj 566 320 table indian;
#X msg 532 355 \; indian 0 0 0.9 1.14 1.8 2.04 2.94 3.18 3.84 4.08
4.9 5.22 5.88 6.12 7.02 7.92 8.16 8.82 9.06 9.96 10.2 10.86 11.1 12
12.9 13.14 13.8 14.04 14.94 15.18;
#X obj 569 446 table siga;
#X msg 531 473 \; siga 0 0 1.5 3.5 5.5 7 8.5 10.5 12 13.5 15.5 17.5
19 20.5 22.5 24 25.5 27.5 29.5 31 32.5 34.5 36 37.5 39.5 41.5 43 44.5
46.5 48.5;
#X msg 534 606 \; harm-major 0 0 2 4 5 7 8 11 12 14 16 17 19 20 23
24 26 28 29 31 32 35 36 38 40 41 43 44 47 48;
#X obj 534 658 table harm-major;
#X obj 1053 43 table pelog;
#X msg 1012 80 \; pelog 0 0 1.5 2.5 3.5 7 8 10.5 12 13.5 14.5 15.5
19 20 22.5 24 25.5 26.5 27.5 31 32 34.5 36 37.5 38.5 39.5 42.5 43.5
45 46.5;
#X msg 1013 225 \; slendro 0 0 2.5 5 7 9.5 12 14.5 17 19 21.5 24 26.5
29 31 33.5 36 38.5 41 43 45.5 47 49.5 52 54 56.5 59 61.5 64 66.5;
#X obj 1013 274 table slendro;
#X msg 1008 353 \; whole 0 0 2 4 6 8 10 12 14 16 18 20 22 24 26 28
30 32 34 36 38 40 42 44 46 48 50 52 54 56;
#X obj 1006 402 table whole;
#X connect 0 0 15 0;
#X connect 1 0 16 0;
#X connect 2 0 17 0;
#X connect 3 0 18 0;
#X connect 4 0 19 0;
#X connect 5 0 21 0;
#X connect 6 0 22 0;
#X connect 7 0 23 0;
#X connect 8 0 24 0;
#X connect 9 0 25 0;
#X connect 10 0 20 0;
#X connect 11 0 26 0;
#X connect 12 0 27 0;
#X connect 13 0 28 0;
#X connect 14 0 29 0;
#X connect 15 0 30 0;
#X connect 16 0 32 0;
#X connect 17 0 34 0;
#X connect 18 0 36 0;
#X connect 19 0 39 0;
#X connect 20 0 40 0;
#X connect 21 0 43 0;
#X connect 22 0 45 0;
#X connect 23 0 47 0;
#X connect 24 0 49 0;
#X connect 25 0 51 0;
#X connect 26 0 52 0;
#X connect 27 0 55 0;
#X connect 28 0 56 0;
#X connect 29 0 58 0;
#X restore 959 427 pd choose-scales;
#X obj 1160 522 tabread major;
#X floatatom 1160 544 5 0 0 0 - - -, f 5;
#X floatatom 1163 486 5 0 0 0 - - -, f 5;
#X obj 426 152 loadbang;
#X connect 0 0 5 0;
#X connect 0 1 7 0;
#X connect 1 0 0 2;
#X connect 2 0 0 1;
#X connect 3 0 0 0;
#X connect 6 0 3 0;
#X connect 6 0 2 0;
#X connect 6 0 1 0;
#X connect 8 0 24 0;
#X connect 9 0 32 0;
#X connect 10 0 8 1;
#X connect 11 0 12 0;
#X connect 12 0 13 0;
#X connect 15 0 8 0;
#X connect 16 0 3 0;
#X connect 17 0 32 0;
#X connect 18 0 17 0;
#X connect 19 0 18 0;
#X connect 20 0 23 0;
#X connect 21 0 8 1;
#X connect 23 0 21 0;
#X connect 24 0 9 0;
#X connect 26 0 25 0;
#X connect 27 0 26 0;
#X connect 28 0 29 0;
#X connect 29 0 32 0;
#X connect 30 0 28 0;
#X connect 31 0 30 0;
#X connect 32 0 16 0;
#X connect 33 0 23 0;
#X connect 35 0 36 0;
#X connect 37 0 35 0;
#X connect 38 0 15 0;
#X restore 170 104 pd midi-in;
#X obj 635 348 r filter_start;
#X obj 670 408 r filter_end;
#X obj 691 537 r filter_time;
#X obj 609 560 r filter_q;
#X msg 844 446 10;
#X obj 948 239 loadbang;
#X msg 844 353 64;
#X msg 844 390 64;
#X msg 844 488 0;
#X obj 940 11 loadbang;
#X msg 836 218 64;
#X msg 836 162 30;
#X msg 836 260 30;
#X msg 836 125 0;
#X obj 424 787 map_log 1 127 10 10010;
#X obj 276 107 map_log 1 127 10 10010, f 24;
#X obj 483 104 map_log 1 127 10 10010, f 24;
#X obj 634 266 map_log 1 127 10 10010, f 24;
#X obj 639 186 map_log 1 127 0.1 1.1, f 24;
#X obj 635 384 map_log 1 127 20 20000;
#X obj 637 438 map_log 1 127 20 20000;
#X obj 638 485 map_log 1 127 10 10000;
#X obj 631 619 map_log 1 127 1 256;
#X connect 0 0 18 0;
#X connect 0 1 18 1;
#X connect 1 0 19 0;
#X connect 2 0 3 0;
#X connect 2 0 3 1;
#X connect 4 0 2 1;
#X connect 5 0 11 0;
#X connect 6 0 9 0;
#X connect 7 0 12 0;
#X connect 8 0 10 0;
#X connect 9 0 13 0;
#X connect 10 0 14 0;
#X connect 11 0 15 0;
#X connect 12 0 16 0;
#X connect 17 0 2 0;
#X connect 18 0 1 0;
#X connect 18 1 1 1;
#X connect 18 2 1 2;
#X connect 19 0 17 0;
#X connect 19 1 26 0;
#X connect 19 2 27 0;
#X connect 19 3 28 0;
#X connect 23 0 24 0;
#X connect 24 0 25 0;
#X connect 26 0 2 0;
#X connect 27 0 2 0;
#X connect 28 0 2 0;
#X connect 29 0 49 0;
#X connect 30 0 50 0;
#X connect 31 0 52 0;
#X connect 32 0 51 0;
#X connect 33 0 18 0;
#X connect 33 1 18 1;
#X connect 34 0 53 0;
#X connect 35 0 54 0;
#X connect 36 0 55 0;
#X connect 37 0 56 0;
#X connect 39 0 40 0;
#X connect 39 0 41 0;
#X connect 39 0 38 0;
#X connect 39 0 42 0;
#X connect 43 0 47 0;
#X connect 43 0 45 0;
#X connect 43 0 44 0;
#X connect 43 0 46 0;
#X connect 49 0 6 0;
#X connect 50 0 8 0;
#X connect 51 0 7 0;
#X connect 52 0 5 0;
#X connect 53 0 20 0;
#X connect 54 0 21 0;
#X connect 55 0 22 0;
#X connect 56 0 23 0;
