#N canvas 857 192 546 488 10;
#X obj 80 43 inlet;
#X obj 82 387 outlet~;
#X obj 85 88 unpack 0 0;
#X obj 85 110 mtof;
#X obj 206 194 / 127;
#X obj 205 132 sel 0;
#X obj 65 166 -~ 0.5;
#X obj 85 132 osc~;
#X connect 0 0 2 0;
#X connect 2 0 3 0;
#X connect 2 1 5 0;
#X connect 3 0 7 0;
#X connect 5 1 4 0;
#X connect 6 0 1 0;
#X connect 7 0 6 0;
