#N canvas 2191 -234 450 300 10;
#X obj 143 44 r frequency;
#X msg 238 93 \$1 50;
#X obj 152 142 line~;
#X obj 218 164 osc~;
#X obj 238 200 *~ 0.7;
#X obj 178 246 dac~;
#X connect 0 0 1 0;
#X connect 1 0 2 0;
#X connect 2 0 3 0;
#X connect 3 0 4 0;
#X connect 4 0 5 0;
#X connect 4 0 5 1;
