#N canvas 512 50 1133 1005 10;
#X obj 115 164 notein;
#X obj 116 229 pack 0 0 0;
#X obj 107 391 *~;
#X obj 104 428 dac~;
#X obj 230 383 hsl 128 15 0 1 0 1 empty empty volume -2 -8 0 10 -262144
-1 -1 11000 1;
#X obj 118 280 route 1 2 3 4;
#X obj 116 207 poly 1 1;
#X obj 103 326 note;
#X obj 423 92 r att;
#X obj 423 114 map 0 127 10 10000;
#X obj 423 136 s a;
#X obj 285 90 midi-in;
#X connect 0 0 6 0;
#X connect 0 1 6 1;
#X connect 1 0 5 0;
#X connect 2 0 3 0;
#X connect 2 0 3 1;
#X connect 4 0 2 1;
#X connect 5 0 7 0;
#X connect 6 0 1 0;
#X connect 6 1 1 1;
#X connect 6 2 1 2;
#X connect 7 0 2 0;
#X connect 8 0 9 0;
#X connect 9 0 10 0;
