#N canvas 993 229 546 488 10;
#X obj 80 43 inlet;
#X obj 82 387 outlet~;
#X obj 85 88 unpack 0 0;
#X obj 85 110 mtof;
#X obj 85 132 phasor~;
#X obj 101 195 *~;
#X obj 206 194 / 127;
#X obj 157 132 adsr;
#X obj 131 220 *~;
#X obj 205 132 sel 0;
#X obj 65 166 -~ 0.5;
#X obj 104 309 vcf~;
#X obj 192 283 r q;
#N canvas 919 277 450 300 filter 0;
#X obj 74 40 inlet;
#X obj 216 247 outlet~;
#X msg 74 70 bang;
#X obj 74 104 f;
#X obj 131 130 t b f;
#X obj 135 70 r start;
#X obj 165 155 pack 0 0 0;
#X obj 166 186 route 0;
#X obj 102 228 line~;
#X obj 242 68 r end;
#X obj 301 69 r time;
#X connect 0 0 2 0;
#X connect 2 0 3 0;
#X connect 3 0 4 0;
#X connect 4 0 6 0;
#X connect 4 1 8 0;
#X connect 5 0 3 1;
#X connect 6 0 7 0;
#X connect 7 0 8 0;
#X connect 8 0 1 0;
#X connect 9 0 6 1;
#X connect 10 0 6 2;
#X restore 257 195 pd filter;
#X connect 0 0 2 0;
#X connect 2 0 3 0;
#X connect 2 1 7 0;
#X connect 2 1 9 0;
#X connect 3 0 4 0;
#X connect 4 0 10 0;
#X connect 5 0 8 0;
#X connect 6 0 8 1;
#X connect 7 0 5 1;
#X connect 8 0 11 0;
#X connect 9 1 6 0;
#X connect 9 1 13 0;
#X connect 10 0 5 0;
#X connect 11 0 1 0;
#X connect 12 0 11 2;
#X connect 13 0 11 1;
