#N canvas 880 111 566 488 10;
#X obj 146 42 inlet;
#X obj 151 394 outlet~;
#X obj 270 74 r a;
#X obj 310 74 r d;
#X obj 354 74 r s;
#X obj 53 100 r r;
#X obj 146 64 sel 0;
#X obj 191 128 t b b b;
#X obj 154 192 0;
#X obj 189 330 line~;
#X obj 228 192 pack 1 0;
#X obj 300 160 delay;
#X obj 293 122 + 1;
#X obj 309 192 pack 0 0 0;
#X text 236 216 attack;
#X text 324 216 decay;
#X obj 309 242 route 0;
#X obj 36 197 pack 0 0;
#X msg 135 146 stop;
#X text 62 216 release;
#X connect 0 0 6 0;
#X connect 2 0 10 1;
#X connect 2 0 12 0;
#X connect 3 0 13 2;
#X connect 4 0 13 1;
#X connect 5 0 17 1;
#X connect 6 0 17 0;
#X connect 6 0 18 0;
#X connect 6 1 7 0;
#X connect 7 0 11 0;
#X connect 7 1 10 0;
#X connect 7 2 8 0;
#X connect 8 0 9 0;
#X connect 9 0 1 0;
#X connect 10 0 9 0;
#X connect 11 0 13 0;
#X connect 12 0 11 1;
#X connect 13 0 16 0;
#X connect 16 0 9 0;
#X connect 17 0 9 0;
#X connect 18 0 11 0;
